<?xml version="1.0" encoding="UTF-8"?>
<!-- Creator: CorelDRAW -->
<svg xmlns="http://www.w3.org/2000/svg" xmlns:xlink="http://www.w3.org/1999/xlink" xml:space="preserve" width="512" height="512" version="1.1" style="shape-rendering:geometricPrecision; text-rendering:geometricPrecision; image-rendering:optimizeQuality; fill-rule:evenodd; clip-rule:evenodd" viewBox="0 0 1707 1707">
 <defs>
  <style type="text/css">
   <![CDATA[
    .fil0 {fill:black}
   ]]>
  </style>
 </defs>
 <g id="Layer_x0020_1">
  <metadata id="CorelCorpID_0Corel-Layer"/>
  <path class="fil0" d="M75 517l0 59 129 0c33,0 33,50 0,50l-129 0 0 87 129 0c33,0 33,50 0,50l-129 0 0 168 98 0c11,-28 39,-49 71,-49 33,0 61,21 71,50l312 0c11,-29 39,-50 72,-50 33,0 61,22 72,50l105 0c0,-138 0,-276 0,-415 -268,0 -534,0 -801,0zm336 -48c0,-138 0,-277 0,-415 0,-14 11,-25 25,-25l266 0c0,-16 8,-29 25,-29l81 0c137,0 137,212 0,212l-81 0c-14,0 -25,-11 -25,-25l-140 -4 0 286 337 0c14,0 25,11 25,25l0 162 128 0c32,-73 124,-57 190,-57l251 -66c1,-111 189,-110 189,1l0 516c-3,115 -185,113 -189,4l-251 -72c-65,0 -154,16 -188,-52l-130 0c0,54 0,108 0,162 0,14 -11,25 -25,25l-218 0 0 89c-1,15 -12,25 -25,25l-107 0 213 369c17,28 -28,52 -42,24l-221 -383 0 442c0,31 -50,32 -50,-1l0 -441 -220 384c-16,26 -59,2 -42,-25l213 -369 -105 0c-14,0 -25,-11 -25,-25l0 -89 -219 0c-14,0 -25,-11 -25,-25 0,-199 0,-399 0,-598 0,-12 8,-22 20,-25l63 -165c5,-10 13,-16 23,-16l181 0c14,0 25,12 25,25l0 156 73 0zm220 648l-312 0 0 65c104,0 208,0 312,0l0 -65zm-534 -648l191 0 0 -132 -140 0 -51 132zm827 237l0 174 121 0 0 -174 -121 0zm-849 362c267,0 534,0 801,0l0 -86 -105 0c-10,30 -39,52 -72,52 -33,0 -61,-22 -72,-52l-312 0c-10,30 -38,52 -71,52 -33,0 -62,-23 -73,-53l-96 0 0 87zm265 -265l0 -233c0,-18 19,-30 34,-21l223 117c16,8 16,33 0,43l-223 117c-16,8 -34,-4 -34,-23zm48 -193l0 153 146 -76 -146 -77zm-144 321c-15,0 -28,13 -28,26 0,16 13,28 28,28 15,0 26,-12 26,-28 0,-15 -12,-26 -26,-26zm455 0c-35,0 -34,54 0,54 16,0 28,-12 28,-28 0,-13 -12,-26 -28,-26zm53 -883l0 116 56 0c73,0 73,-116 0,-116l-56 0zm-50 29l-244 0c0,130 0,260 0,390l54 0 0 -309c0,-14 11,-25 25,-25l165 0 0 -56zm572 563l0 300 219 63 0 -420 -219 57zm-179 50l0 201c0,56 92,43 130,43l0 -287c-38,0 -130,-14 -130,43zm447 360c0,50 91,50 91,0l0 -516c0,-48 -91,-47 -91,0 0,172 0,344 0,516z"/>
 </g>
</svg>
