<svg id="Layer_1" enable-background="new 0 0 53 53" viewBox="0 0 53 53" xmlns="http://www.w3.org/2000/svg"><g><g><g><g><path d="m40.9397087 14.220006c-.5899658-.2199707-1.2299805-.3299561-1.8900146-.3299561h1.9500122c-.0299683.1099854-.0399781.2199707-.0599976.3299561z"/></g><g><path d="m40.9394531 14.7197266c-.0585938 0-.1181641-.0107422-.1748047-.03125-.53125-.1982422-1.1083984-.2988281-1.7148438-.2988281-.2763672 0-.5-.2236328-.5-.5s.2236328-.5.5-.5h1.9501954c.15625 0 .3027344.0732422.3974609.1972656s.1259766.2841797.0849609.4345703c-.0146484.0537109-.0214844.1064453-.0302734.1601563l-.0215034.1298828c-.0273247.1455078-.1171684.2705078-.2450981.34375-.0761719.0429687-.1611328.0644531-.2460938.0644531z"/></g></g><g><g><path d="m47.759716 19.6000118v9.4200439c0 3.1500225-2.5700073 5.6999493-5.710022 5.6999493h-3c3.1400146 0 5.710022-2.5499268 5.710022-5.6999493v-9.4200439c0-.0400391 0-.0700684-.0100098-.1099854.3099976.0699463.6300049.0999756.960022.0999756.7199707 0 1.4099731-.1599121 2.0299683-.4599609.0100098.1499024.0200195.3100586.0200195.4699707z"/></g><g><path d="m42.0498047 35.2197266h-3c-.2763672 0-.5-.2236328-.5-.5s.2236328-.5.5-.5c2.8730469 0 5.2099609-2.3320313 5.2099609-5.1992188v-9.4208984c-.0410156-.1679688.0097656-.3408203.1308594-.4638672s.2988281-.1679688.46875-.1337891c.8066406.1826172 1.8291016.0820313 2.6621094-.3222656.1484375-.0722656.3251953-.0664063.4677734.0175781.1435547.0830078.2373047.2314453.2490234.3974609.0117188.1611328.0214844.3339844.0214844.5048828v9.4208984c0 3.4179689-2.7861328 6.1992189-6.2099609 6.1992189zm3.2099609-15.147461v8.9482422c0 2.1650391-1.1181641 4.0751953-2.8076172 5.1835938 2.6855469-.2050781 4.8076172-2.4521484 4.8076172-5.1835938v-9.1640625c-.6396484.2001953-1.3535156.2666016-2 .2158203z"/></g></g></g><g><g><g><g><g><path d="m38.2396965 7.9800158v5.9100342h-3v-5.9100342c0-3.0299072-2.4499512-5.4799805-5.4699707-5.4799805h3c3.0200195 0 5.4699707 2.4500732 5.4699707 5.4799805z"/></g><g><path d="m38.2392578 14.3896484h-3c-.2763672 0-.5-.2236328-.5-.5v-5.9091796c0-2.7460938-2.2294922-4.9804688-4.9697265-4.9804688-.2763672 0-.5-.2236328-.5-.5s.2236328-.5.5-.5h3c3.2919922 0 5.9697266 2.6826172 5.9697266 5.9804688v5.9091797c-.0000001.2763671-.2236329.4999999-.5000001.4999999zm-2.5-1h2v-5.4091796c0-2.6396484-2.0595703-4.8066406-4.6533203-4.9707031 1.5986328 1.0742188 2.6533203 2.9013672 2.6533203 4.9707031z"/></g></g><g><g><path d="m35.2396965 34.720005h3v10.3000488c0 3.0299072-2.4499512 5.4799805-5.4699707 5.4799805h-3c3.0200195 0 5.4699707-2.4500732 5.4699707-5.4799805z"/></g><g><path d="m32.7695313 51h-3c-.2763672 0-.5-.2236328-.5-.5s.2236328-.5.5-.5c2.7402344 0 4.9697266-2.2333984 4.9697266-4.9794922v-10.3007812c0-.2763672.2236328-.5.5-.5h3c.2763672 0 .5.2236328.5.5v10.3007813c-.0000001 3.2968749-2.6777345 5.9794921-5.9697266 5.9794921zm2.9697265-15.7802734v9.8007813c0 2.0683594-1.0546875 3.8955078-2.6533203 4.9697266 2.59375-.1640625 4.6533203-2.3310547 4.6533203-4.9697266v-9.8007813z"/></g></g><g><g><path d="m29.7695313 51h-21.7998047c-3.2919922 0-5.9697266-2.6826172-5.9697266-5.9794922v-37.040039c0-3.2978516 2.6777344-5.9804688 5.9697266-5.9804688h21.7998047c3.2919922 0 5.9697266 2.6826172 5.9697266 5.9804688v5.9091797c0 .2763672-.2236328.5-.5.5s-.5-.2236328-.5-.5v-5.9091797c-.0000001-2.7460938-2.2294923-4.9804688-4.9697266-4.9804688h-21.7998047c-2.7402344 0-4.9697266 2.234375-4.9697266 4.9804688v37.0400391c0 2.7460937 2.2294922 4.9794921 4.9697266 4.9794921h21.7998047c2.7402344 0 4.9697266-2.2333984 4.9697266-4.9794922v-10.3007812c0-.2763672.2236328-.5.5-.5s.5.2236328.5.5v10.3007813c-.0000001 3.2968749-2.6777345 5.9794921-5.9697266 5.9794921z"/></g></g><g><g><path d="m32.3300781 45.25h-26.930664c-1.8740235 0-3.3994141-1.5253906-3.3994141-3.4003906v-30.6992188c0-1.875 1.5253906-3.4003906 3.3994141-3.4003906h26.9306641c1.8798828 0 3.4091797 1.5253906 3.4091797 3.4003906v2.7392578c0 .2763672-.2236328.5-.5.5s-.5-.2236328-.5-.5v-2.7392578c0-1.3232422-1.0810547-2.4003906-2.4091797-2.4003906h-26.9306641c-1.3232422 0-2.3994141 1.0771484-2.3994141 2.4003906v30.6992188c0 1.3232422 1.0761719 2.4003906 2.3994141 2.4003906h26.9306641c1.328125 0 2.4091797-1.0771484 2.4091797-2.4003906v-7.1298828c0-.2763672.2236328-.5.5-.5s.5.2236328.5.5v7.1298828c-.0000001 1.875-1.529297 3.4003906-3.4091798 3.4003906z"/></g></g><g><g><path d="m23.8632813 5.8359375h-6.0341797c-.2763672 0-.5-.2236328-.5-.5s.2236328-.5.5-.5h6.0341797c.2763672 0 .5.2236328.5.5s-.2236329.5-.5.5z"/></g></g><g><g><path d="m15.8291016 5.8359375h-1.9521484c-.2763672 0-.5-.2236328-.5-.5s.2236328-.5.5-.5h1.9521484c.2763672 0 .5.2236328.5.5s-.2236328.5-.5.5z"/></g></g><g><g><path d="m22.4541016 47.7724609h-7.1669922c-.2763672 0-.5-.2236328-.5-.5s.2236328-.5.5-.5h7.1669922c.2763672 0 .5.2236328.5.5s-.2236328.5-.5.5z"/></g></g></g></g></g><g><g><g><path d="m26.4882813 39.2724609c-.3798828 0-.7333984-.2089844-.9238281-.546875l-1.9433594-3.5126953c-1.5234375-.0742188-2.9628906-.7089844-4.0820313-1.8066406-1.1513672-1.1630859-1.8095703-2.7597656-1.8095703-4.3857422v-9.4208984c0-3.4238281 2.7773438-6.2099609 6.1904297-6.2099609h15.1298828c.7255859 0 1.4199219.1220703 2.0644531.3613281.2587891.0966797.390625.3847656.2939453.6435547s-.3837891.3916016-.6435547.2939453c-.53125-.1982422-1.1083984-.2988281-1.7148438-.2988281h-15.1298827c-2.8623047 0-5.1904297 2.3369141-5.1904297 5.2099609v9.4208984c0 1.3652344.5527344 2.7050781 1.515625 3.6777344.9980469.9794922 2.3046875 1.5214844 3.6748047 1.5214844.1816406 0 .3496094.0986328.4375.2578125l2.0800781 3.7607422 2.1845703-3.7617188c.0888672-.1582031.2558594-.2568359.4375-.2568359h9.9902344c2.8730469 0 5.2099609-2.3320313 5.2099609-5.1992188v-9.4208984c-.0654297-.2685547.1015625-.5341797.3691407-.5996094.2714844-.0703125.5410156.1044922.6064453.3720703.0244141.0976563.0244141.1728516.0244141.2275391v9.4208984c0 3.4179688-2.7861328 6.1992188-6.2099609 6.1992188h-9.6962891l-1.9462891 3.5039063c-.1826172.3378906-.5234375.5449219-.9082031.5488281-.0039063-.0000001-.006836-.0000001-.0107422-.0000001z"/></g></g></g><g><g><g><path d="m21.9326935 25.1994877c.0230637.4118347.1202564.7462444.2915802 1.003231.3261738.4810238.9010963.7215347 1.7247677.7215347.3690033 0 .705061-.0527153 1.008173-.158144.5864525-.2042713.8796806-.5699806.8796806-1.0971298 0-.3953629-.1235504-.6770573-.3706532-.8450871-.2503948-.1647339-.6424618-.3080521-1.1762009-.4299564l-.9834633-.2223911c-.6424637-.1449661-1.0971298-.3047581-1.3640003-.4793758-.461256-.303112-.6918831-.7561302-.6918831-1.3590565 0-.6523476.2256851-1.1877346.6770573-1.6061592s1.0905399-.6276379 1.9175072-.6276379c.7610722 0 1.4076538.1836796 1.9397449.5510368s.7981358.9546337.7981358 1.7618313h-.9241581c-.0494194-.388773-.15485-.6869411-.3162899-.8945065-.2998161-.3788891-.8088436-.5683327-1.5270863-.5683327-.5798645 0-.9966412.1219025-1.2503319.3657093s-.3805351.5271492-.3805351.850029c0 .3558254.1482601.616106.4447823.7808399.1943855.1054306.6342258.2372169 1.319521.3953629l1.0180569.232275c.4909077.1120186.8697968.2652225 1.1366653.4596081.461256.3393517.6918831.8319073.6918831 1.4776649 0 .8039036-.2924023 1.3788261-.8772087 1.7247677s-1.2643356.5189133-2.0385857.5189133c-.9027443 0-1.6094532-.230629-2.1201286-.6918831-.5106773-.457962-.7610722-1.07901-.7511883-1.8631439h.9241581z"/></g></g><g><g><path d="m28.0163288 20.2821712h1.4084759l2.085535 6.1379967 2.0707111-6.1379967h1.3936501v7.2598362h-.9340439v-4.2847366c0-.1482601.0032959-.3937149.0098839-.7363625.0065918-.3426476.0098839-.7100048.0098839-1.1020718l-2.0707073 6.1231709h-.9735794l-2.085535-6.1231709v.2223911c0 .1779137.004118.4489021.0123539.8129635.0082378.3640633.0123558.6317558.0123558.8030796v4.2847366h-.9389839v-7.2598361z"/></g></g><g><g><path d="m37.1145973 25.1994877c.0230637.4118347.1202545.7462444.2915802 1.003231.3261719.4810238.9010963.7215347 1.7247658.7215347.3690071 0 .7050629-.0527153 1.0081749-.158144.5864525-.2042713.8796806-.5699806.8796806-1.0971298 0-.3953629-.1235504-.6770573-.3706512-.8450871-.2503967-.1647339-.6424637-.3080521-1.1762047-.4299564l-.9834633-.2223911c-.6424637-.1449661-1.0971298-.3047581-1.3639984-.4793758-.4612541-.303112-.6918831-.7561302-.6918831-1.3590565 0-.6523476.2256851-1.1877346.6770592-1.6061592.4513702-.4184246 1.090538-.6276379 1.9175034-.6276379.7610741 0 1.4076538.1836796 1.9397469.5510368.5320892.3673573.7981377.9546337.7981377 1.7618313h-.92416c-.0494194-.388773-.15485-.6869411-.316288-.8945065-.2998161-.3788891-.8088455-.5683327-1.5270882-.5683327-.5798645 0-.9966431.1219025-1.2503319.3657093-.2536926.2438068-.3805351.5271492-.3805351.850029 0 .3558254.1482582.616106.4447823.7808399.1943855.1054306.6342239.2372169 1.319519.3953629l1.0180588.232275c.4909058.1120186.8697968.2652225 1.1366653.4596081.4612541.3393517.6918831.8319073.6918831 1.4776649 0 .8039036-.2924042 1.3788261-.8772087 1.7247677-.5848083.3459415-1.2643356.5189133-2.0385857.5189133-.9027443 0-1.6094551-.230629-2.1201286-.6918831-.5106773-.457962-.7610741-1.07901-.7511902-1.8631439h.9241599z"/></g></g></g><g><g><path d="m45.7050781 20.0878906c-2.9199219 0-5.2949219-2.375-5.2949219-5.2949219s2.375-5.2949219 5.2949219-5.2949219 5.2949219 2.3750001 5.2949219 5.294922-2.375 5.2949218-5.2949219 5.2949218zm0-9.5898437c-2.3681641 0-4.2949219 1.9267578-4.2949219 4.2949219s1.9267578 4.2949219 4.2949219 4.2949219 4.2949219-1.9267579 4.2949219-4.2949219-1.9267578-4.2949219-4.2949219-4.2949219z"/></g></g><g><g><g><g><path d="m44.9296989 16.4000607h2.3900146v.7199707h-3.2600098l.0100098-.0999756c.0200195-.4000244.0999756-.75.25-1.04004.1400146-.2999268.4299927-.5699463.8400269-.8199463l.5999756-.3400879c.2600098-.1499023.4400024-.2800293.539978-.3798828.1500244-.1601563.2200317-.3200684.2200317-.5200195 0-.2299805-.0599976-.4100342-.2000122-.5400391-.1400146-.1400146-.3200073-.2099609-.5499878-.2099609-.3400269 0-.5700073.1298828-.7000122.3798828-.0800171.1501465-.1199951.3500977-.1199951.6101074l-.0100098.0899658h-.7600098v-.0999756c0-.4000244.0800171-.7299805.2300415-.9899902.25-.4599609.7199707-.7000732 1.3599854-.7000732.539978 0 .9400024.1500244 1.2000122.4500732.25.2900391.3699951.6298828.3699951.9799805 0 .3898926-.1300049.7199707-.4000244.9899902-.1499634.1499023-.4199829.3299561-.7999878.5500488l-.4299927.2299805c-.2000122.1099854-.3500366.2199707-.460022.3099365-.1499632.1300058-.2600096.2700205-.3200072.4300547z"/></g></g></g></g></g></svg>