<svg id="Layer_1" enable-background="new 0 0 492 492" viewBox="0 0 492 492" xmlns="http://www.w3.org/2000/svg"><g><g><path d="m412.53 355.67h-358.51c-16.28 0-29.52-13.24-29.52-29.52v-258.08c0-16.28 13.24-29.52 29.52-29.52h357.22c2.5 0 4.71 1.61 5.48 3.99s-.08 4.98-2.11 6.44c-1.41 1.02-2.7 2.22-3.83 3.56l-91.95 109.13 20.72 20.72 93.04-78.39c1.71-1.44 4.11-1.76 6.14-.82s3.33 2.98 3.33 5.22v217.76c-.01 16.27-13.25 29.51-29.53 29.51zm-358.51-305.6c-9.92 0-18 8.07-18 18v258.09c0 9.92 8.07 18 18 18h358.51c9.92 0 18-8.07 18-18v-205.38l-87.61 73.82c-2.29 1.93-5.67 1.78-7.79-.33l-28.2-28.2c-2.12-2.12-2.26-5.5-.33-7.78l91.18-108.22z"/></g><g><path d="m410.37 301.07h-354.19c-3.18 0-5.76-2.58-5.76-5.76v-225.08c0-3.18 2.58-5.76 5.76-5.76h332.16c2.24 0 4.28 1.3 5.22 3.33.95 2.03.63 4.43-.82 6.14l-73.92 87.73 20.72 20.72 67.12-56.56c1.71-1.44 4.11-1.76 6.14-.82s3.33 2.98 3.33 5.22v165.08c0 3.18-2.58 5.76-5.76 5.76zm-348.43-11.52h342.68v-146.93l-61.69 51.98c-2.29 1.93-5.67 1.78-7.79-.33l-28.2-28.2c-2.11-2.11-2.26-5.5-.33-7.78l69.35-82.3h-314.02z"/></g><g><path d="m436.29 301.07h-406.03c-3.18 0-5.76-2.58-5.76-5.76s2.58-5.76 5.76-5.76h406.03c3.18 0 5.76 2.58 5.76 5.76s-2.58 5.76-5.76 5.76z"/></g><g><path d="m281.33 421.55h-96.11c-3.18 0-5.76-2.58-5.76-5.76v-65.88c0-3.18 2.58-5.76 5.76-5.76h96.11c3.18 0 5.76 2.58 5.76 5.76v65.88c0 3.18-2.58 5.76-5.76 5.76zm-90.35-11.52h84.59v-54.36h-84.59z"/></g><g><path d="m323.98 460.3h-181.42c-3.18 0-5.76-2.58-5.76-5.76v-9.22c0-19.45 15.83-35.28 35.28-35.28h122.38c19.45 0 35.28 15.83 35.28 35.28v9.22c0 3.18-2.57 5.76-5.76 5.76zm-175.66-11.52h169.9v-3.46c0-13.1-10.66-23.76-23.76-23.76h-122.38c-13.1 0-23.76 10.66-23.76 23.76z"/></g><g><path d="m251.9 395.35h-37.25c-3.18 0-5.76-2.58-5.76-5.76v-39.68c0-3.18 2.58-5.76 5.76-5.76h37.25c3.18 0 5.76 2.58 5.76 5.76v39.68c0 3.19-2.58 5.76-5.76 5.76zm-31.49-11.52h25.74v-28.17h-25.74z"/></g><g><path d="m250.55 328.37h-34.55c-3.18 0-5.76-2.58-5.76-5.76s2.58-5.76 5.76-5.76h34.56c3.18 0 5.76 2.58 5.76 5.76s-2.59 5.76-5.77 5.76z"/></g><g><path d="m339.21 195.96c-1.48 0-2.95-.57-4.07-1.69l-28.2-28.2c-2.12-2.11-2.26-5.5-.33-7.78l95.36-113.17c6.11-7.25 14.94-11.47 24.87-11.89 11.04-.48 21.82 3.73 29.62 11.53 7.8 7.8 12 18.59 11.53 29.62-.42 9.93-4.65 18.76-11.89 24.87l-113.18 95.35c-1.08.91-2.4 1.36-3.71 1.36zm-20.39-34.3 20.72 20.72 109.13-91.95c4.75-4 7.52-9.88 7.81-16.55.33-7.7-2.73-15.54-8.17-20.98-5.44-5.44-13.28-8.5-20.98-8.17-6.67.28-12.54 3.06-16.55 7.81z"/></g><g><path d="m264.18 246.64c-2.96 0-6-.08-9.11-.23-2.15-.1-4.07-1.4-4.96-3.36s-.62-4.25.71-5.95c5.12-6.55 17.65-26.27 14.2-38.69-.07-.26-.13-.53-.16-.8-.08-.62-1.85-15.2 8.39-27.05 7.97-9.23 20.64-14.05 37.67-14.33 1.55-.02 3.06.58 4.17 1.69l28.2 28.2c1.07 1.07 1.68 2.52 1.69 4.03.01.81-.06 20.02-16.67 35.95-14.23 13.65-35.77 20.54-64.13 20.54zm12.07-50.79c3.47 13.53-4.1 29.43-10.12 39.27 24.29-.28 42.5-6.09 54.2-17.32 10.1-9.68 12.42-20.76 12.96-25.37l-24.59-24.59c-12.36.58-21.35 4.03-26.74 10.27-6.15 7.11-5.84 16.04-5.71 17.74z"/></g><g><path d="m360.31 178.17c-1.47 0-2.95-.56-4.07-1.69l-31.52-31.52c-2.25-2.25-2.25-5.9 0-8.15s5.9-2.25 8.15 0l31.52 31.52c2.25 2.25 2.25 5.9 0 8.15-1.13 1.13-2.6 1.69-4.08 1.69z"/></g><g><path d="m436.93 113.61c-1.47 0-2.95-.56-4.07-1.69l-43.58-43.58c-2.25-2.25-2.25-5.9 0-8.15s5.9-2.25 8.15 0l43.58 43.58c2.25 2.25 2.25 5.9 0 8.15-1.13 1.13-2.6 1.69-4.08 1.69z"/></g><g><g><path d="m152.04 147.73h-66.09c-3.18 0-5.76-2.58-5.76-5.76v-41.47c0-3.18 2.58-5.76 5.76-5.76h66.09c3.18 0 5.76 2.58 5.76 5.76v41.47c0 3.18-2.58 5.76-5.76 5.76zm-60.33-11.52h54.57v-29.95h-54.57z"/></g><g><path d="m152.04 174.94h-66.09c-3.18 0-5.76-2.58-5.76-5.76s2.58-5.76 5.76-5.76h66.09c3.18 0 5.76 2.58 5.76 5.76s-2.58 5.76-5.76 5.76z"/></g><g><path d="m132.6 202.16h-46.65c-3.18 0-5.76-2.58-5.76-5.76s2.58-5.76 5.76-5.76h46.65c3.18 0 5.76 2.58 5.76 5.76s-2.58 5.76-5.76 5.76z"/></g></g><g><g><path d="m250.52 147.73h-66.09c-3.18 0-5.76-2.58-5.76-5.76v-41.47c0-3.18 2.58-5.76 5.76-5.76h66.09c3.18 0 5.76 2.58 5.76 5.76v41.47c0 3.18-2.58 5.76-5.76 5.76zm-60.33-11.52h54.57v-29.95h-54.57z"/></g><g><path d="m250.52 174.94h-66.09c-3.18 0-5.76-2.58-5.76-5.76s2.58-5.76 5.76-5.76h66.09c3.18 0 5.76 2.58 5.76 5.76s-2.58 5.76-5.76 5.76z"/></g><g><path d="m231.08 202.16h-46.65c-3.18 0-5.76-2.58-5.76-5.76s2.58-5.76 5.76-5.76h46.65c3.18 0 5.76 2.58 5.76 5.76s-2.58 5.76-5.76 5.76z"/></g></g></g></svg>