<?xml version="1.0" encoding="UTF-8"?>
<svg id="Layer_1" data-name="Layer 1" xmlns="http://www.w3.org/2000/svg" viewBox="0 0 1903 427.4">
  <defs>
    <style>
      .cls-1 {
        fill: #f26651;
      }

      .cls-2 {
        fill: #231f20;
      }
    </style>
  </defs>
  <g>
    <path class="cls-1" d="M0,418.81V9.72h74.38v409.09H0ZM67.51,190.52L256.32,9.72h97.27L67.51,284.36v-93.84ZM359.32,418.81h-86.4l-139.6-208.84,56.07-47.49,169.93,256.32Z"/>
    <path class="cls-1" d="M550.09,9.72v70.37h-172.56V9.72M377.53,348.44h172.56v70.37h-172.56v-70.37ZM427.2,70.94h73.24v286.65h-73.24V70.94Z"/>
    <path class="cls-1" d="M669.59,402.5c-31.86-16.59-55.89-40.91-72.09-72.94-16.22-32.04-24.32-70.76-24.32-116.15s8.1-84.01,24.32-115.87c16.2-31.85,40.23-56.07,72.09-72.66,31.85-16.59,70.85-24.88,117.01-24.88s85.15,8.29,117,24.88c31.85,16.59,55.87,40.82,72.09,72.66,16.2,31.86,24.32,70.47,24.32,115.87s-8.11,84.1-24.32,116.15c-16.22,32.03-40.25,56.35-72.09,72.94-31.85,16.59-70.85,24.89-117,24.89s-85.16-8.31-117.01-24.89ZM862.12,338.14c20.21-11.06,35.37-27.07,45.49-48.06,10.1-20.98,15.16-46.53,15.16-76.66,0-45.39-11.44-80.2-34.33-104.42-22.88-24.22-56.84-36.33-101.84-36.33-30.14,0-55.31,5.53-75.53,16.59-20.22,11.07-35.38,27.08-45.49,48.06-10.11,20.99-15.16,46.35-15.16,76.1s5.05,55.69,15.16,76.66c10.1,20.99,25.26,37,45.49,48.06,20.22,11.07,45.39,16.59,75.53,16.59s55.3-5.52,75.52-16.59Z"/>
    <path class="cls-2" d="M1432.98,9.72h321.27c33.56,0,61.22,5.06,82.96,15.16,21.74,10.11,37.67,23.84,47.77,41.19,10.1,17.36,15.16,37.11,15.16,59.22,0,26.71-7.25,47.98-21.74,63.79-14.5,15.83-33.18,25.84-56.07,30.04v1.15c8.38.38,17.74,2.95,28.04,7.72,10.3,4.77,19.74,13.72,28.32,26.88,8.58,13.16,12.87,31.39,12.87,54.65v52.63c0,14.88,1.15,27.09,3.43,36.62,2.29,9.55,4.95,16.22,8.01,20.03h-74.38c-3.06-5.34-5.72-12.49-8.01-21.46-2.29-8.96-3.43-20.68-3.43-35.19v-52.63c0-14.49-4.49-25.64-13.44-33.47-8.97-7.82-19.84-13.07-32.61-15.74-12.79-2.67-26.81-4-42.06-4h-221.71v162.49h-74.38V9.72ZM1793.72,179.08c10.3-4.95,17.82-11.44,22.6-19.46,4.76-8,7.15-16.78,7.15-26.31s-2.39-18.31-7.15-26.32c-4.78-8.01-12.3-14.49-22.6-19.46-10.3-4.95-23.46-7.44-39.48-7.44h-246.88v106.42h246.88c16.02,0,29.18-2.48,39.48-7.44Z"/>
  </g>
  <rect class="cls-2" x="1069.21" y="186.52" width="283.31" height="67.46"/>
</svg>