<?xml version="1.0" encoding="UTF-8"?>
<svg id="Layer_1" xmlns="http://www.w3.org/2000/svg" version="1.1" viewBox="0 0 786.8 64.3">
  <!-- Generator: Adobe Illustrator 29.0.1, SVG Export Plug-In . SVG Version: 2.1.0 Build 192)  -->
  <defs>
    <style>
      .st0 {
        fill: #231f20;
      }

      .st1 {
        fill: #fff;
      }
    </style>
  </defs>
  <g>
    <g>
      <path class="st0" d="M561.2,39.8h-2.6v22.2h-11.6V5.5h16.7c13,0,18.2,9.2,18.2,17.2s-2.8,12.4-9.5,15.4l11.5,23.9h-13.1l-9.6-22.2ZM558.6,29.1h5.2c4,0,6.4-2.4,6.4-6.4s-2.5-6.4-6.4-6.4h-5.2v12.8Z"/>
      <path class="st0" d="M610.5,51.4h-12.2l-2.4,10.6h-12.2l14.7-56.5h12.2l14.6,56.5h-12.3s-2.4-10.6-2.4-10.6ZM608.1,40.9l-3.7-16.9-3.8,16.9h7.6Z"/>
      <path class="st0" d="M645.1,20.6c0-3.8-2.8-5.3-5.2-5.3s-4.7,1.6-4.7,4.5,2.6,5.4,6,6.9l3.7,1.7c8.3,3.7,13,9,13,18s-9.1,16.9-17.5,16.9-17.6-5.9-17.6-17.7v-2.1h11.7v2c0,4.7,2.9,6.8,5.9,6.8s5.8-1.7,5.8-5.4-3.5-6.4-5.9-7.6l-3.7-1.7c-10.3-4.7-13-9.4-13-17.3s6.8-16.1,16.4-16.1,16.7,7.1,16.7,16.2v2.9h-11.5v-2.8Z"/>
      <path class="st0" d="M682.1,51.4h-12.2l-2.4,10.6h-12.2l14.7-56.5h12.2l14.6,56.5h-12.3l-2.4-10.6ZM679.7,40.9l-3.7-16.9-3.8,16.9h7.6Z"/>
      <path class="st0" d="M732.5,5.5v56.5h-10.5l-13-32.5v32.5h-11.7V5.5h11.1l12.6,30.8V5.5h11.5Z"/>
      <path class="st0" d="M774.1,20.6c0-3.8-2.8-5.3-5.2-5.3s-4.7,1.6-4.7,4.5,2.6,5.4,6,6.9l3.7,1.7c8.3,3.7,13,9,13,18s-9.1,16.9-17.5,16.9-17.6-5.9-17.6-17.7v-2.1h11.7v2c0,4.7,2.9,6.8,5.9,6.8s5.8-1.7,5.8-5.4-3.5-6.4-5.9-7.6l-3.7-1.7c-10.3-4.7-13-9.4-13-17.3s6.8-16.1,16.4-16.1,16.7,7.1,16.7,16.2v2.9h-11.5v-2.8Z"/>
    </g>
    <path class="st0" d="M747,.2c-4.2-.9-8.3,1.7-9.2,5.8,0,0,0,0,0,0l-2,8.9h0c-.2.7-.2,1.5,0,2.3.7,2.6,3.3,4.1,5.9,3.4.8-.2,1.5-.6,2-1.1h0s6.8-6.2,6.8-6.2h0c1.1-1,2-2.4,2.3-4,.9-4.2-1.7-8.3-5.8-9.2Z"/>
  </g>
  <g>
    <path class="st1" d="M0,63.1V4.5h10.7v58.6H0ZM9.7,30.4L36.7,4.5h13.9L9.7,43.8v-13.5ZM51.5,63.1h-12.4l-20-29.9,8-6.8,24.4,36.7Z"/>
    <path class="st1" d="M78.9,4.5v10.1h-24.7V4.5M54.1,53h24.7v10.1h-24.7v-10.1ZM61.2,13.2h10.5v41.1h-10.5V13.2Z"/>
    <path class="st1" d="M96,60.8c-4.6-2.4-8-5.9-10.3-10.5-2.3-4.6-3.5-10.1-3.5-16.6s1.2-12,3.5-16.6c2.3-4.6,5.8-8,10.3-10.4,4.6-2.4,10.2-3.6,16.8-3.6s12.2,1.2,16.8,3.6c4.6,2.4,8,5.9,10.3,10.4,2.3,4.6,3.5,10.1,3.5,16.6s-1.2,12.1-3.5,16.6c-2.3,4.6-5.8,8.1-10.3,10.5-4.6,2.4-10.2,3.6-16.8,3.6s-12.2-1.2-16.8-3.6ZM123.6,51.5c2.9-1.6,5.1-3.9,6.5-6.9,1.4-3,2.2-6.7,2.2-11,0-6.5-1.6-11.5-4.9-15-3.3-3.5-8.1-5.2-14.6-5.2s-7.9.8-10.8,2.4c-2.9,1.6-5.1,3.9-6.5,6.9-1.4,3-2.2,6.6-2.2,10.9s.7,8,2.2,11c1.4,3,3.6,5.3,6.5,6.9,2.9,1.6,6.5,2.4,10.8,2.4s7.9-.8,10.8-2.4Z"/>
  </g>
  <rect class="st0" x="153.3" y="34.4" width="378.8" height="3.6"/>
</svg>